<mxfile host="Electron" modified="2023-08-29T01:33:24.720Z" agent="Mozilla/5.0 (Windows NT 10.0; Win64; x64) AppleWebKit/537.36 (KHTML, like Gecko) draw.io/21.6.8 Chrome/114.0.5735.289 Electron/25.5.0 Safari/537.36" etag="nObHiNC7vHYVTsB4Juer" version="21.6.8" type="device">
  <diagram name="Página-1" id="hoifU6ViEmK2viiTp7wW">
    <mxGraphModel dx="5467" dy="2840" grid="0" gridSize="10" guides="1" tooltips="1" connect="1" arrows="1" fold="1" page="0" pageScale="1" pageWidth="827" pageHeight="1169" math="0" shadow="0">
      <root>
        <mxCell id="0" />
        <mxCell id="1" parent="0" />
        <mxCell id="_56JsJIrMxqEIV-PhFIg-268" value="" style="shape=folder;fontStyle=1;spacingTop=10;tabWidth=40;tabHeight=14;tabPosition=left;hachureGap=4;fontFamily=Architects Daughter;fontSource=https%3A%2F%2Ffonts.googleapis.com%2Fcss%3Ffamily%3DArchitects%2BDaughter;fontSize=20;align=left;fontColor=default;labelPosition=center;verticalLabelPosition=top;verticalAlign=middle;textDirection=ltr;horizontal=1;movable=1;resizable=1;rotatable=1;deletable=1;editable=1;locked=0;connectable=1;" vertex="1" parent="1">
          <mxGeometry x="2743.5" y="2059" width="386" height="462" as="geometry" />
        </mxCell>
        <mxCell id="_56JsJIrMxqEIV-PhFIg-271" value="|" style="shape=folder;fontStyle=1;spacingTop=10;tabWidth=40;tabHeight=14;tabPosition=left;hachureGap=4;fontFamily=Architects Daughter;fontSource=https%3A%2F%2Ffonts.googleapis.com%2Fcss%3Ffamily%3DArchitects%2BDaughter;fontSize=20;align=left;fontColor=none;labelPosition=center;verticalLabelPosition=top;verticalAlign=middle;textDirection=ltr;horizontal=1;noLabel=1;" vertex="1" parent="1">
          <mxGeometry x="2579.5" y="1409" width="736.5" height="570" as="geometry" />
        </mxCell>
        <mxCell id="_56JsJIrMxqEIV-PhFIg-272" value="RouterReqHandler" style="html=1;dropTarget=0;whiteSpace=wrap;hachureGap=4;fontFamily=Architects Daughter;fontSource=https%3A%2F%2Ffonts.googleapis.com%2Fcss%3Ffamily%3DArchitects%2BDaughter;fontSize=20;" vertex="1" parent="1">
          <mxGeometry x="2849.5" y="1486" width="180" height="90" as="geometry" />
        </mxCell>
        <mxCell id="_56JsJIrMxqEIV-PhFIg-273" value="" style="shape=module;jettyWidth=8;jettyHeight=4;hachureGap=4;fontFamily=Architects Daughter;fontSource=https%3A%2F%2Ffonts.googleapis.com%2Fcss%3Ffamily%3DArchitects%2BDaughter;fontSize=20;" vertex="1" parent="_56JsJIrMxqEIV-PhFIg-272">
          <mxGeometry x="1" width="20" height="20" relative="1" as="geometry">
            <mxPoint x="-27" y="7" as="offset" />
          </mxGeometry>
        </mxCell>
        <mxCell id="_56JsJIrMxqEIV-PhFIg-274" value="BACKEND NODE/EXPRESS" style="text;align=center;fontStyle=1;verticalAlign=middle;spacingLeft=3;spacingRight=3;strokeColor=none;rotatable=0;points=[[0,0.5],[1,0.5]];portConstraint=eastwest;html=1;fontSize=20;fontFamily=Architects Daughter;" vertex="1" parent="1">
          <mxGeometry x="2697.5" y="1439" width="80" height="26" as="geometry" />
        </mxCell>
        <mxCell id="_56JsJIrMxqEIV-PhFIg-275" value="DATABASE" style="text;align=center;fontStyle=1;verticalAlign=middle;spacingLeft=3;spacingRight=3;strokeColor=none;rotatable=0;points=[[0,0.5],[1,0.5]];portConstraint=eastwest;html=1;fontSize=20;fontFamily=Architects Daughter;" vertex="1" parent="1">
          <mxGeometry x="2775.5" y="2099" width="80" height="26" as="geometry" />
        </mxCell>
        <mxCell id="_56JsJIrMxqEIV-PhFIg-276" value="&lt;b&gt;Data..json&lt;br&gt;&lt;/b&gt;" style="html=1;dropTarget=0;whiteSpace=wrap;hachureGap=4;fontFamily=Architects Daughter;fontSource=https%3A%2F%2Ffonts.googleapis.com%2Fcss%3Ffamily%3DArchitects%2BDaughter;fontSize=20;" vertex="1" parent="1">
          <mxGeometry x="2852.5" y="2386" width="180" height="90" as="geometry" />
        </mxCell>
        <mxCell id="_56JsJIrMxqEIV-PhFIg-277" value="" style="shape=module;jettyWidth=8;jettyHeight=4;hachureGap=4;fontFamily=Architects Daughter;fontSource=https%3A%2F%2Ffonts.googleapis.com%2Fcss%3Ffamily%3DArchitects%2BDaughter;fontSize=20;" vertex="1" parent="_56JsJIrMxqEIV-PhFIg-276">
          <mxGeometry x="1" width="20" height="20" relative="1" as="geometry">
            <mxPoint x="-27" y="7" as="offset" />
          </mxGeometry>
        </mxCell>
        <mxCell id="_56JsJIrMxqEIV-PhFIg-278" value="&lt;b&gt;&amp;lt;&amp;lt;MongoDB&amp;gt;&amp;gt;&lt;br&gt;CRUDfunctions&lt;br&gt;&lt;/b&gt;" style="html=1;dropTarget=0;whiteSpace=wrap;hachureGap=4;fontFamily=Architects Daughter;fontSource=https%3A%2F%2Ffonts.googleapis.com%2Fcss%3Ffamily%3DArchitects%2BDaughter;fontSize=20;" vertex="1" parent="1">
          <mxGeometry x="2850.5" y="2196" width="180" height="90" as="geometry" />
        </mxCell>
        <mxCell id="_56JsJIrMxqEIV-PhFIg-279" value="" style="shape=module;jettyWidth=8;jettyHeight=4;hachureGap=4;fontFamily=Architects Daughter;fontSource=https%3A%2F%2Ffonts.googleapis.com%2Fcss%3Ffamily%3DArchitects%2BDaughter;fontSize=20;" vertex="1" parent="_56JsJIrMxqEIV-PhFIg-278">
          <mxGeometry x="1" width="20" height="20" relative="1" as="geometry">
            <mxPoint x="-27" y="7" as="offset" />
          </mxGeometry>
        </mxCell>
        <mxCell id="_56JsJIrMxqEIV-PhFIg-280" value="" style="rounded=0;orthogonalLoop=1;jettySize=auto;html=1;endArrow=halfCircle;endFill=0;endSize=6;strokeWidth=1;hachureGap=4;fontFamily=Architects Daughter;fontSource=https%3A%2F%2Ffonts.googleapis.com%2Fcss%3Ffamily%3DArchitects%2BDaughter;fontSize=16;exitX=0.495;exitY=1.025;exitDx=0;exitDy=0;exitPerimeter=0;" edge="1" parent="1" source="_56JsJIrMxqEIV-PhFIg-278">
          <mxGeometry relative="1" as="geometry">
            <mxPoint x="2940.5" y="2291" as="sourcePoint" />
            <mxPoint x="2940.4" y="2330" as="targetPoint" />
          </mxGeometry>
        </mxCell>
        <mxCell id="_56JsJIrMxqEIV-PhFIg-281" value="" style="rounded=0;orthogonalLoop=1;jettySize=auto;html=1;endArrow=oval;endFill=0;sourcePerimeterSpacing=0;targetPerimeterSpacing=0;endSize=10;hachureGap=4;fontFamily=Architects Daughter;fontSource=https%3A%2F%2Ffonts.googleapis.com%2Fcss%3Ffamily%3DArchitects%2BDaughter;fontSize=16;exitX=0.5;exitY=0;exitDx=0;exitDy=0;entryX=1.068;entryY=0.588;entryDx=0;entryDy=0;entryPerimeter=0;" edge="1" parent="1" source="_56JsJIrMxqEIV-PhFIg-276" target="_56JsJIrMxqEIV-PhFIg-282">
          <mxGeometry relative="1" as="geometry">
            <mxPoint x="2917.5" y="2360" as="sourcePoint" />
          </mxGeometry>
        </mxCell>
        <mxCell id="_56JsJIrMxqEIV-PhFIg-282" value="" style="ellipse;whiteSpace=wrap;html=1;align=center;aspect=fixed;fillColor=none;strokeColor=none;resizable=0;perimeter=centerPerimeter;rotatable=0;allowArrows=0;points=[];outlineConnect=1;hachureGap=4;fontFamily=Architects Daughter;fontSource=https%3A%2F%2Ffonts.googleapis.com%2Fcss%3Ffamily%3DArchitects%2BDaughter;fontSize=20;" vertex="1" parent="1">
          <mxGeometry x="2935.5" y="2328" width="10" height="10" as="geometry" />
        </mxCell>
        <mxCell id="_56JsJIrMxqEIV-PhFIg-304" value=" " style="group;" vertex="1" connectable="0" parent="1">
          <mxGeometry x="3397.5" y="1420" width="761" height="559" as="geometry" />
        </mxCell>
        <mxCell id="_56JsJIrMxqEIV-PhFIg-305" value="|" style="shape=folder;fontStyle=1;spacingTop=10;tabWidth=40;tabHeight=14;tabPosition=left;hachureGap=4;fontFamily=Architects Daughter;fontSource=https%3A%2F%2Ffonts.googleapis.com%2Fcss%3Ffamily%3DArchitects%2BDaughter;fontSize=20;align=left;fontColor=none;labelPosition=center;verticalLabelPosition=top;verticalAlign=middle;textDirection=ltr;horizontal=1;noLabel=1;" vertex="1" parent="_56JsJIrMxqEIV-PhFIg-304">
          <mxGeometry width="761" height="559" as="geometry" />
        </mxCell>
        <mxCell id="_56JsJIrMxqEIV-PhFIg-306" value="ADMIN" style="text;align=center;fontStyle=1;verticalAlign=middle;spacingLeft=3;spacingRight=3;strokeColor=none;rotatable=0;points=[[0,0.5],[1,0.5]];portConstraint=eastwest;html=1;fontSize=20;fontFamily=Architects Daughter;" vertex="1" parent="_56JsJIrMxqEIV-PhFIg-304">
          <mxGeometry x="15.19467554076539" y="28" width="101.29783693843594" height="26" as="geometry" />
        </mxCell>
        <mxCell id="_56JsJIrMxqEIV-PhFIg-307" style="edgeStyle=orthogonalEdgeStyle;shape=connector;rounded=0;hachureGap=4;orthogonalLoop=1;jettySize=auto;html=1;entryX=0;entryY=0.5;entryDx=0;entryDy=0;entryPerimeter=0;labelBackgroundColor=default;strokeColor=default;fontFamily=Architects Daughter;fontSource=https%3A%2F%2Ffonts.googleapis.com%2Fcss%3Ffamily%3DArchitects%2BDaughter;fontSize=16;fontColor=default;endArrow=none;endFill=0;" edge="1" parent="_56JsJIrMxqEIV-PhFIg-304" source="_56JsJIrMxqEIV-PhFIg-308" target="_56JsJIrMxqEIV-PhFIg-323">
          <mxGeometry relative="1" as="geometry" />
        </mxCell>
        <mxCell id="_56JsJIrMxqEIV-PhFIg-308" value="FetchData/&lt;br&gt;Socket.io" style="html=1;dropTarget=0;whiteSpace=wrap;hachureGap=4;fontFamily=Architects Daughter;fontSource=https%3A%2F%2Ffonts.googleapis.com%2Fcss%3Ffamily%3DArchitects%2BDaughter;fontSize=20;" vertex="1" parent="_56JsJIrMxqEIV-PhFIg-304">
          <mxGeometry x="50" y="218" width="180" height="90" as="geometry" />
        </mxCell>
        <mxCell id="_56JsJIrMxqEIV-PhFIg-309" value="" style="shape=module;jettyWidth=8;jettyHeight=4;hachureGap=4;fontFamily=Architects Daughter;fontSource=https%3A%2F%2Ffonts.googleapis.com%2Fcss%3Ffamily%3DArchitects%2BDaughter;fontSize=20;" vertex="1" parent="_56JsJIrMxqEIV-PhFIg-308">
          <mxGeometry x="1" width="20" height="20" relative="1" as="geometry">
            <mxPoint x="-27" y="7" as="offset" />
          </mxGeometry>
        </mxCell>
        <mxCell id="_56JsJIrMxqEIV-PhFIg-310" style="edgeStyle=orthogonalEdgeStyle;shape=connector;rounded=0;hachureGap=4;orthogonalLoop=1;jettySize=auto;html=1;entryX=1;entryY=0.5;entryDx=0;entryDy=0;entryPerimeter=0;labelBackgroundColor=default;strokeColor=default;fontFamily=Architects Daughter;fontSource=https%3A%2F%2Ffonts.googleapis.com%2Fcss%3Ffamily%3DArchitects%2BDaughter;fontSize=16;fontColor=default;endArrow=none;endFill=0;" edge="1" parent="_56JsJIrMxqEIV-PhFIg-304" source="_56JsJIrMxqEIV-PhFIg-311" target="_56JsJIrMxqEIV-PhFIg-323">
          <mxGeometry relative="1" as="geometry" />
        </mxCell>
        <mxCell id="_56JsJIrMxqEIV-PhFIg-311" value="&amp;lt;&amp;lt;REACT&amp;gt;&amp;gt;&lt;br&gt;M,apView" style="html=1;dropTarget=0;whiteSpace=wrap;hachureGap=4;fontFamily=Architects Daughter;fontSource=https%3A%2F%2Ffonts.googleapis.com%2Fcss%3Ffamily%3DArchitects%2BDaughter;fontSize=20;" vertex="1" parent="_56JsJIrMxqEIV-PhFIg-304">
          <mxGeometry x="438" y="422" width="180" height="90" as="geometry" />
        </mxCell>
        <mxCell id="_56JsJIrMxqEIV-PhFIg-312" value="" style="shape=module;jettyWidth=8;jettyHeight=4;hachureGap=4;fontFamily=Architects Daughter;fontSource=https%3A%2F%2Ffonts.googleapis.com%2Fcss%3Ffamily%3DArchitects%2BDaughter;fontSize=20;" vertex="1" parent="_56JsJIrMxqEIV-PhFIg-311">
          <mxGeometry x="1" width="20" height="20" relative="1" as="geometry">
            <mxPoint x="-27" y="7" as="offset" />
          </mxGeometry>
        </mxCell>
        <mxCell id="_56JsJIrMxqEIV-PhFIg-313" value="&amp;lt;&amp;lt;REACT&amp;gt;&amp;gt;&lt;br&gt;AdminUsers" style="html=1;dropTarget=0;whiteSpace=wrap;hachureGap=4;fontFamily=Architects Daughter;fontSource=https%3A%2F%2Ffonts.googleapis.com%2Fcss%3Ffamily%3DArchitects%2BDaughter;fontSize=20;" vertex="1" parent="_56JsJIrMxqEIV-PhFIg-304">
          <mxGeometry x="438" y="52" width="180" height="90" as="geometry" />
        </mxCell>
        <mxCell id="_56JsJIrMxqEIV-PhFIg-314" value="" style="shape=module;jettyWidth=8;jettyHeight=4;hachureGap=4;fontFamily=Architects Daughter;fontSource=https%3A%2F%2Ffonts.googleapis.com%2Fcss%3Ffamily%3DArchitects%2BDaughter;fontSize=20;" vertex="1" parent="_56JsJIrMxqEIV-PhFIg-313">
          <mxGeometry x="1" width="20" height="20" relative="1" as="geometry">
            <mxPoint x="-27" y="7" as="offset" />
          </mxGeometry>
        </mxCell>
        <mxCell id="_56JsJIrMxqEIV-PhFIg-315" value="&amp;lt;&amp;lt;REACT&amp;gt;&amp;gt;&lt;br&gt;INDEX" style="html=1;dropTarget=0;whiteSpace=wrap;hachureGap=4;fontFamily=Architects Daughter;fontSource=https%3A%2F%2Ffonts.googleapis.com%2Fcss%3Ffamily%3DArchitects%2BDaughter;fontSize=20;" vertex="1" parent="_56JsJIrMxqEIV-PhFIg-304">
          <mxGeometry x="441" y="228" width="180" height="90" as="geometry" />
        </mxCell>
        <mxCell id="_56JsJIrMxqEIV-PhFIg-316" value="" style="shape=module;jettyWidth=8;jettyHeight=4;hachureGap=4;fontFamily=Architects Daughter;fontSource=https%3A%2F%2Ffonts.googleapis.com%2Fcss%3Ffamily%3DArchitects%2BDaughter;fontSize=20;" vertex="1" parent="_56JsJIrMxqEIV-PhFIg-315">
          <mxGeometry x="1" width="20" height="20" relative="1" as="geometry">
            <mxPoint x="-27" y="7" as="offset" />
          </mxGeometry>
        </mxCell>
        <mxCell id="_56JsJIrMxqEIV-PhFIg-317" style="edgeStyle=orthogonalEdgeStyle;shape=connector;rounded=0;hachureGap=4;orthogonalLoop=1;jettySize=auto;html=1;exitX=0;exitY=0.5;exitDx=0;exitDy=0;exitPerimeter=0;entryX=1;entryY=0.5;entryDx=0;entryDy=0;labelBackgroundColor=default;strokeColor=default;fontFamily=Architects Daughter;fontSource=https%3A%2F%2Ffonts.googleapis.com%2Fcss%3Ffamily%3DArchitects%2BDaughter;fontSize=16;fontColor=default;endArrow=none;endFill=0;" edge="1" parent="_56JsJIrMxqEIV-PhFIg-304" source="_56JsJIrMxqEIV-PhFIg-319" target="_56JsJIrMxqEIV-PhFIg-308">
          <mxGeometry relative="1" as="geometry">
            <Array as="points">
              <mxPoint x="278" y="96" />
              <mxPoint x="278" y="263" />
            </Array>
          </mxGeometry>
        </mxCell>
        <mxCell id="_56JsJIrMxqEIV-PhFIg-318" style="edgeStyle=orthogonalEdgeStyle;shape=connector;rounded=0;hachureGap=4;orthogonalLoop=1;jettySize=auto;html=1;entryX=0;entryY=0.5;entryDx=0;entryDy=0;labelBackgroundColor=default;strokeColor=default;fontFamily=Architects Daughter;fontSource=https%3A%2F%2Ffonts.googleapis.com%2Fcss%3Ffamily%3DArchitects%2BDaughter;fontSize=16;fontColor=default;endArrow=none;endFill=0;" edge="1" parent="_56JsJIrMxqEIV-PhFIg-304" source="_56JsJIrMxqEIV-PhFIg-319" target="_56JsJIrMxqEIV-PhFIg-313">
          <mxGeometry relative="1" as="geometry" />
        </mxCell>
        <mxCell id="_56JsJIrMxqEIV-PhFIg-319" value="" style="shape=providedRequiredInterface;html=1;verticalLabelPosition=bottom;hachureGap=4;fontFamily=Architects Daughter;fontSource=https%3A%2F%2Ffonts.googleapis.com%2Fcss%3Ffamily%3DArchitects%2BDaughter;fontSize=16;fontColor=default;" vertex="1" parent="_56JsJIrMxqEIV-PhFIg-304">
          <mxGeometry x="315" y="87" width="20" height="20" as="geometry" />
        </mxCell>
        <mxCell id="_56JsJIrMxqEIV-PhFIg-320" style="edgeStyle=orthogonalEdgeStyle;shape=connector;rounded=0;hachureGap=4;orthogonalLoop=1;jettySize=auto;html=1;entryX=0.008;entryY=0.401;entryDx=0;entryDy=0;entryPerimeter=0;labelBackgroundColor=default;strokeColor=default;fontFamily=Architects Daughter;fontSource=https%3A%2F%2Ffonts.googleapis.com%2Fcss%3Ffamily%3DArchitects%2BDaughter;fontSize=16;fontColor=default;endArrow=none;endFill=0;" edge="1" parent="_56JsJIrMxqEIV-PhFIg-304" source="_56JsJIrMxqEIV-PhFIg-322" target="_56JsJIrMxqEIV-PhFIg-315">
          <mxGeometry relative="1" as="geometry" />
        </mxCell>
        <mxCell id="_56JsJIrMxqEIV-PhFIg-321" style="edgeStyle=orthogonalEdgeStyle;shape=connector;rounded=0;hachureGap=4;orthogonalLoop=1;jettySize=auto;html=1;exitX=0;exitY=0.5;exitDx=0;exitDy=0;exitPerimeter=0;entryX=1;entryY=0.5;entryDx=0;entryDy=0;labelBackgroundColor=default;strokeColor=default;fontFamily=Architects Daughter;fontSource=https%3A%2F%2Ffonts.googleapis.com%2Fcss%3Ffamily%3DArchitects%2BDaughter;fontSize=16;fontColor=default;endArrow=none;endFill=0;" edge="1" parent="_56JsJIrMxqEIV-PhFIg-304" source="_56JsJIrMxqEIV-PhFIg-322" target="_56JsJIrMxqEIV-PhFIg-308">
          <mxGeometry relative="1" as="geometry" />
        </mxCell>
        <mxCell id="_56JsJIrMxqEIV-PhFIg-322" value="" style="shape=providedRequiredInterface;html=1;verticalLabelPosition=bottom;hachureGap=4;fontFamily=Architects Daughter;fontSource=https%3A%2F%2Ffonts.googleapis.com%2Fcss%3Ffamily%3DArchitects%2BDaughter;fontSize=16;fontColor=default;" vertex="1" parent="_56JsJIrMxqEIV-PhFIg-304">
          <mxGeometry x="315" y="253" width="20" height="20" as="geometry" />
        </mxCell>
        <mxCell id="_56JsJIrMxqEIV-PhFIg-323" value="" style="shape=providedRequiredInterface;html=1;verticalLabelPosition=bottom;hachureGap=4;fontFamily=Architects Daughter;fontSource=https%3A%2F%2Ffonts.googleapis.com%2Fcss%3Ffamily%3DArchitects%2BDaughter;fontSize=16;fontColor=default;" vertex="1" parent="_56JsJIrMxqEIV-PhFIg-304">
          <mxGeometry x="325" y="457" width="20" height="20" as="geometry" />
        </mxCell>
        <mxCell id="_56JsJIrMxqEIV-PhFIg-324" value="" style="ellipse;whiteSpace=wrap;html=1;align=center;aspect=fixed;fillColor=none;strokeColor=none;resizable=0;perimeter=centerPerimeter;rotatable=0;allowArrows=0;points=[];outlineConnect=1;hachureGap=4;fontFamily=Architects Daughter;fontSource=https%3A%2F%2Ffonts.googleapis.com%2Fcss%3Ffamily%3DArchitects%2BDaughter;fontSize=20;" vertex="1" parent="1">
          <mxGeometry x="2107.5" y="1614" width="10" height="10" as="geometry" />
        </mxCell>
        <mxCell id="_56JsJIrMxqEIV-PhFIg-325" value="" style="ellipse;whiteSpace=wrap;html=1;align=center;aspect=fixed;fillColor=none;strokeColor=none;resizable=0;perimeter=centerPerimeter;rotatable=0;allowArrows=0;points=[];outlineConnect=1;hachureGap=4;fontFamily=Architects Daughter;fontSource=https%3A%2F%2Ffonts.googleapis.com%2Fcss%3Ffamily%3DArchitects%2BDaughter;fontSize=20;" vertex="1" parent="1">
          <mxGeometry x="2186.5" y="1661" width="10" height="10" as="geometry" />
        </mxCell>
        <mxCell id="_56JsJIrMxqEIV-PhFIg-326" value="MongooseFuncs()" style="html=1;dropTarget=0;whiteSpace=wrap;hachureGap=4;fontFamily=Architects Daughter;fontSource=https%3A%2F%2Ffonts.googleapis.com%2Fcss%3Ffamily%3DArchitects%2BDaughter;fontSize=20;" vertex="1" parent="1">
          <mxGeometry x="2849.5" y="1833" width="180" height="90" as="geometry" />
        </mxCell>
        <mxCell id="_56JsJIrMxqEIV-PhFIg-327" value="" style="shape=module;jettyWidth=8;jettyHeight=4;hachureGap=4;fontFamily=Architects Daughter;fontSource=https%3A%2F%2Ffonts.googleapis.com%2Fcss%3Ffamily%3DArchitects%2BDaughter;fontSize=20;" vertex="1" parent="_56JsJIrMxqEIV-PhFIg-326">
          <mxGeometry x="1" width="20" height="20" relative="1" as="geometry">
            <mxPoint x="-27" y="7" as="offset" />
          </mxGeometry>
        </mxCell>
        <mxCell id="_56JsJIrMxqEIV-PhFIg-328" value="" style="edgeStyle=orthogonalEdgeStyle;rounded=0;hachureGap=4;orthogonalLoop=1;jettySize=auto;html=1;fontFamily=Architects Daughter;fontSource=https%3A%2F%2Ffonts.googleapis.com%2Fcss%3Ffamily%3DArchitects%2BDaughter;fontSize=16;endArrow=none;endFill=0;" edge="1" parent="1" source="_56JsJIrMxqEIV-PhFIg-329" target="_56JsJIrMxqEIV-PhFIg-326">
          <mxGeometry relative="1" as="geometry" />
        </mxCell>
        <mxCell id="_56JsJIrMxqEIV-PhFIg-329" value="" style="shape=providedRequiredInterface;html=1;verticalLabelPosition=bottom;hachureGap=4;fontFamily=Architects Daughter;fontSource=https%3A%2F%2Ffonts.googleapis.com%2Fcss%3Ffamily%3DArchitects%2BDaughter;fontSize=20;rotation=-90;" vertex="1" parent="1">
          <mxGeometry x="2929.5" y="2000" width="20" height="20" as="geometry" />
        </mxCell>
        <mxCell id="_56JsJIrMxqEIV-PhFIg-330" style="edgeStyle=orthogonalEdgeStyle;rounded=0;hachureGap=4;orthogonalLoop=1;jettySize=auto;html=1;entryX=0;entryY=0.5;entryDx=0;entryDy=0;entryPerimeter=0;fontFamily=Architects Daughter;fontSource=https%3A%2F%2Ffonts.googleapis.com%2Fcss%3Ffamily%3DArchitects%2BDaughter;fontSize=16;endArrow=none;endFill=0;" edge="1" parent="1" source="_56JsJIrMxqEIV-PhFIg-278" target="_56JsJIrMxqEIV-PhFIg-329">
          <mxGeometry relative="1" as="geometry" />
        </mxCell>
        <mxCell id="_56JsJIrMxqEIV-PhFIg-331" value="" style="shape=providedRequiredInterface;html=1;verticalLabelPosition=bottom;hachureGap=4;fontFamily=Architects Daughter;fontSource=https%3A%2F%2Ffonts.googleapis.com%2Fcss%3Ffamily%3DArchitects%2BDaughter;fontSize=16;fontColor=default;" vertex="1" parent="1">
          <mxGeometry x="2739.5" y="1521" width="20" height="20" as="geometry" />
        </mxCell>
        <mxCell id="_56JsJIrMxqEIV-PhFIg-332" style="edgeStyle=orthogonalEdgeStyle;shape=connector;rounded=0;hachureGap=4;orthogonalLoop=1;jettySize=auto;html=1;entryX=1;entryY=0.5;entryDx=0;entryDy=0;entryPerimeter=0;labelBackgroundColor=default;strokeColor=default;fontFamily=Architects Daughter;fontSource=https%3A%2F%2Ffonts.googleapis.com%2Fcss%3Ffamily%3DArchitects%2BDaughter;fontSize=16;fontColor=default;endArrow=none;endFill=0;" edge="1" parent="1" source="_56JsJIrMxqEIV-PhFIg-272" target="_56JsJIrMxqEIV-PhFIg-331">
          <mxGeometry relative="1" as="geometry" />
        </mxCell>
        <mxCell id="_56JsJIrMxqEIV-PhFIg-333" style="edgeStyle=orthogonalEdgeStyle;shape=connector;rounded=0;hachureGap=4;orthogonalLoop=1;jettySize=auto;html=1;entryX=0;entryY=0.5;entryDx=0;entryDy=0;entryPerimeter=0;labelBackgroundColor=default;strokeColor=default;fontFamily=Architects Daughter;fontSource=https%3A%2F%2Ffonts.googleapis.com%2Fcss%3Ffamily%3DArchitects%2BDaughter;fontSize=16;fontColor=default;endArrow=none;endFill=0;" edge="1" parent="1" source="_56JsJIrMxqEIV-PhFIg-301" target="_56JsJIrMxqEIV-PhFIg-331">
          <mxGeometry relative="1" as="geometry" />
        </mxCell>
        <mxCell id="_56JsJIrMxqEIV-PhFIg-334" style="edgeStyle=orthogonalEdgeStyle;shape=connector;rounded=0;hachureGap=4;orthogonalLoop=1;jettySize=auto;html=1;entryX=0;entryY=0.5;entryDx=0;entryDy=0;labelBackgroundColor=default;strokeColor=default;fontFamily=Architects Daughter;fontSource=https%3A%2F%2Ffonts.googleapis.com%2Fcss%3Ffamily%3DArchitects%2BDaughter;fontSize=16;fontColor=default;endArrow=none;endFill=0;" edge="1" parent="1" source="_56JsJIrMxqEIV-PhFIg-336" target="_56JsJIrMxqEIV-PhFIg-308">
          <mxGeometry relative="1" as="geometry" />
        </mxCell>
        <mxCell id="_56JsJIrMxqEIV-PhFIg-335" style="edgeStyle=orthogonalEdgeStyle;shape=connector;rounded=0;hachureGap=4;orthogonalLoop=1;jettySize=auto;html=1;exitX=0;exitY=0.5;exitDx=0;exitDy=0;exitPerimeter=0;entryX=1;entryY=0.5;entryDx=0;entryDy=0;labelBackgroundColor=default;strokeColor=default;fontFamily=Architects Daughter;fontSource=https%3A%2F%2Ffonts.googleapis.com%2Fcss%3Ffamily%3DArchitects%2BDaughter;fontSize=16;fontColor=default;endArrow=none;endFill=0;" edge="1" parent="1" source="_56JsJIrMxqEIV-PhFIg-336" target="_56JsJIrMxqEIV-PhFIg-272">
          <mxGeometry relative="1" as="geometry">
            <Array as="points">
              <mxPoint x="3348.5" y="1674" />
              <mxPoint x="3348.5" y="1531" />
            </Array>
          </mxGeometry>
        </mxCell>
        <mxCell id="_56JsJIrMxqEIV-PhFIg-336" value="" style="shape=providedRequiredInterface;html=1;verticalLabelPosition=bottom;hachureGap=4;fontFamily=Architects Daughter;fontSource=https%3A%2F%2Ffonts.googleapis.com%2Fcss%3Ffamily%3DArchitects%2BDaughter;fontSize=16;fontColor=default;" vertex="1" parent="1">
          <mxGeometry x="3346.5" y="1673" width="20" height="20" as="geometry" />
        </mxCell>
        <mxCell id="_56JsJIrMxqEIV-PhFIg-337" value="AuthFunctions" style="html=1;dropTarget=0;whiteSpace=wrap;hachureGap=4;fontFamily=Architects Daughter;fontSource=https%3A%2F%2Ffonts.googleapis.com%2Fcss%3Ffamily%3DArchitects%2BDaughter;fontSize=20;" vertex="1" parent="1">
          <mxGeometry x="2647.5" y="1654" width="180" height="90" as="geometry" />
        </mxCell>
        <mxCell id="_56JsJIrMxqEIV-PhFIg-338" value="" style="shape=module;jettyWidth=8;jettyHeight=4;hachureGap=4;fontFamily=Architects Daughter;fontSource=https%3A%2F%2Ffonts.googleapis.com%2Fcss%3Ffamily%3DArchitects%2BDaughter;fontSize=20;" vertex="1" parent="_56JsJIrMxqEIV-PhFIg-337">
          <mxGeometry x="1" width="20" height="20" relative="1" as="geometry">
            <mxPoint x="-27" y="7" as="offset" />
          </mxGeometry>
        </mxCell>
        <mxCell id="_56JsJIrMxqEIV-PhFIg-339" style="edgeStyle=orthogonalEdgeStyle;shape=connector;rounded=0;hachureGap=4;orthogonalLoop=1;jettySize=auto;html=1;entryX=1;entryY=0.5;entryDx=0;entryDy=0;entryPerimeter=0;labelBackgroundColor=default;strokeColor=default;fontFamily=Architects Daughter;fontSource=https%3A%2F%2Ffonts.googleapis.com%2Fcss%3Ffamily%3DArchitects%2BDaughter;fontSize=16;fontColor=default;endArrow=none;endFill=0;exitX=0.5;exitY=1;exitDx=0;exitDy=0;" edge="1" parent="1" source="_56JsJIrMxqEIV-PhFIg-272" target="_56JsJIrMxqEIV-PhFIg-345">
          <mxGeometry relative="1" as="geometry">
            <Array as="points" />
            <mxPoint x="2939.4354759356265" y="1584.0015230484364" as="sourcePoint" />
            <mxPoint x="2939.4354759356265" y="1584.0015230484364" as="targetPoint" />
          </mxGeometry>
        </mxCell>
        <mxCell id="_56JsJIrMxqEIV-PhFIg-462" style="edgeStyle=orthogonalEdgeStyle;rounded=0;orthogonalLoop=1;jettySize=auto;html=1;entryX=0;entryY=0.5;entryDx=0;entryDy=0;entryPerimeter=0;endArrow=none;endFill=0;" edge="1" parent="1" source="_56JsJIrMxqEIV-PhFIg-340" target="_56JsJIrMxqEIV-PhFIg-345">
          <mxGeometry relative="1" as="geometry" />
        </mxCell>
        <mxCell id="_56JsJIrMxqEIV-PhFIg-340" value="ParkingFunctions" style="html=1;dropTarget=0;whiteSpace=wrap;hachureGap=4;fontFamily=Architects Daughter;fontSource=https%3A%2F%2Ffonts.googleapis.com%2Fcss%3Ffamily%3DArchitects%2BDaughter;fontSize=20;" vertex="1" parent="1">
          <mxGeometry x="2849.5" y="1654" width="180" height="90" as="geometry" />
        </mxCell>
        <mxCell id="_56JsJIrMxqEIV-PhFIg-341" value="" style="shape=module;jettyWidth=8;jettyHeight=4;hachureGap=4;fontFamily=Architects Daughter;fontSource=https%3A%2F%2Ffonts.googleapis.com%2Fcss%3Ffamily%3DArchitects%2BDaughter;fontSize=20;" vertex="1" parent="_56JsJIrMxqEIV-PhFIg-340">
          <mxGeometry x="1" width="20" height="20" relative="1" as="geometry">
            <mxPoint x="-27" y="7" as="offset" />
          </mxGeometry>
        </mxCell>
        <mxCell id="_56JsJIrMxqEIV-PhFIg-343" value="UserManagment" style="html=1;dropTarget=0;whiteSpace=wrap;hachureGap=4;fontFamily=Architects Daughter;fontSource=https%3A%2F%2Ffonts.googleapis.com%2Fcss%3Ffamily%3DArchitects%2BDaughter;fontSize=20;" vertex="1" parent="1">
          <mxGeometry x="3053.5" y="1654" width="180" height="90" as="geometry" />
        </mxCell>
        <mxCell id="_56JsJIrMxqEIV-PhFIg-344" value="" style="shape=module;jettyWidth=8;jettyHeight=4;hachureGap=4;fontFamily=Architects Daughter;fontSource=https%3A%2F%2Ffonts.googleapis.com%2Fcss%3Ffamily%3DArchitects%2BDaughter;fontSize=20;" vertex="1" parent="_56JsJIrMxqEIV-PhFIg-343">
          <mxGeometry x="1" width="20" height="20" relative="1" as="geometry">
            <mxPoint x="-27" y="7" as="offset" />
          </mxGeometry>
        </mxCell>
        <mxCell id="_56JsJIrMxqEIV-PhFIg-345" value="" style="shape=providedRequiredInterface;html=1;verticalLabelPosition=bottom;hachureGap=4;fontFamily=Architects Daughter;fontSource=https%3A%2F%2Ffonts.googleapis.com%2Fcss%3Ffamily%3DArchitects%2BDaughter;fontSize=16;fontColor=default;rotation=-91;" vertex="1" parent="1">
          <mxGeometry x="2929.5" y="1585" width="20" height="20" as="geometry" />
        </mxCell>
        <mxCell id="_56JsJIrMxqEIV-PhFIg-346" style="edgeStyle=orthogonalEdgeStyle;shape=connector;rounded=0;hachureGap=4;orthogonalLoop=1;jettySize=auto;html=1;labelBackgroundColor=default;strokeColor=default;fontFamily=Architects Daughter;fontSource=https%3A%2F%2Ffonts.googleapis.com%2Fcss%3Ffamily%3DArchitects%2BDaughter;fontSize=16;fontColor=default;endArrow=none;endFill=0;exitX=0.5;exitY=0;exitDx=0;exitDy=0;" edge="1" parent="1" source="_56JsJIrMxqEIV-PhFIg-337">
          <mxGeometry relative="1" as="geometry">
            <Array as="points">
              <mxPoint x="2737.5" y="1621" />
              <mxPoint x="2939.5" y="1621" />
            </Array>
            <mxPoint x="2940" y="1621" as="targetPoint" />
          </mxGeometry>
        </mxCell>
        <mxCell id="_56JsJIrMxqEIV-PhFIg-347" style="edgeStyle=orthogonalEdgeStyle;shape=connector;rounded=0;hachureGap=4;orthogonalLoop=1;jettySize=auto;html=1;labelBackgroundColor=default;strokeColor=default;fontFamily=Architects Daughter;fontSource=https%3A%2F%2Ffonts.googleapis.com%2Fcss%3Ffamily%3DArchitects%2BDaughter;fontSize=16;fontColor=default;endArrow=none;endFill=0;exitX=0.5;exitY=0;exitDx=0;exitDy=0;" edge="1" parent="1" source="_56JsJIrMxqEIV-PhFIg-343">
          <mxGeometry relative="1" as="geometry">
            <Array as="points">
              <mxPoint x="3143.5" y="1621" />
              <mxPoint x="2939.5" y="1621" />
            </Array>
            <mxPoint x="2939" y="1621" as="targetPoint" />
          </mxGeometry>
        </mxCell>
        <mxCell id="_56JsJIrMxqEIV-PhFIg-348" value="" style="edgeStyle=orthogonalEdgeStyle;shape=connector;rounded=0;hachureGap=4;orthogonalLoop=1;jettySize=auto;html=1;labelBackgroundColor=default;strokeColor=default;fontFamily=Architects Daughter;fontSource=https%3A%2F%2Ffonts.googleapis.com%2Fcss%3Ffamily%3DArchitects%2BDaughter;fontSize=16;fontColor=default;endArrow=none;endFill=0;" edge="1" parent="1" source="_56JsJIrMxqEIV-PhFIg-349" target="_56JsJIrMxqEIV-PhFIg-326">
          <mxGeometry relative="1" as="geometry" />
        </mxCell>
        <mxCell id="_56JsJIrMxqEIV-PhFIg-349" value="" style="shape=providedRequiredInterface;html=1;verticalLabelPosition=bottom;hachureGap=4;fontFamily=Architects Daughter;fontSource=https%3A%2F%2Ffonts.googleapis.com%2Fcss%3Ffamily%3DArchitects%2BDaughter;fontSize=16;fontColor=default;rotation=-90;" vertex="1" parent="1">
          <mxGeometry x="2930.5" y="1784" width="20" height="20" as="geometry" />
        </mxCell>
        <mxCell id="_56JsJIrMxqEIV-PhFIg-350" style="edgeStyle=orthogonalEdgeStyle;rounded=0;orthogonalLoop=1;jettySize=auto;html=1;entryX=1;entryY=0.5;entryDx=0;entryDy=0;entryPerimeter=0;exitX=0.5;exitY=1;exitDx=0;exitDy=0;endArrow=none;endFill=0;" edge="1" parent="1" source="_56JsJIrMxqEIV-PhFIg-337" target="_56JsJIrMxqEIV-PhFIg-349">
          <mxGeometry relative="1" as="geometry">
            <Array as="points">
              <mxPoint x="2737.5" y="1763" />
              <mxPoint x="2940.5" y="1763" />
            </Array>
          </mxGeometry>
        </mxCell>
        <mxCell id="_56JsJIrMxqEIV-PhFIg-351" style="edgeStyle=orthogonalEdgeStyle;shape=connector;rounded=0;hachureGap=4;orthogonalLoop=1;jettySize=auto;html=1;entryX=1;entryY=0.5;entryDx=0;entryDy=0;entryPerimeter=0;labelBackgroundColor=default;strokeColor=default;fontFamily=Architects Daughter;fontSource=https%3A%2F%2Ffonts.googleapis.com%2Fcss%3Ffamily%3DArchitects%2BDaughter;fontSize=16;fontColor=default;endArrow=none;endFill=0;" edge="1" parent="1" source="_56JsJIrMxqEIV-PhFIg-340" target="_56JsJIrMxqEIV-PhFIg-349">
          <mxGeometry relative="1" as="geometry" />
        </mxCell>
        <mxCell id="_56JsJIrMxqEIV-PhFIg-352" style="edgeStyle=orthogonalEdgeStyle;rounded=0;orthogonalLoop=1;jettySize=auto;html=1;endArrow=none;endFill=0;entryX=1;entryY=0.5;entryDx=0;entryDy=0;entryPerimeter=0;" edge="1" parent="1" source="_56JsJIrMxqEIV-PhFIg-343" target="_56JsJIrMxqEIV-PhFIg-349">
          <mxGeometry relative="1" as="geometry">
            <mxPoint x="2941.5" y="1775.181807084517" as="targetPoint" />
            <Array as="points">
              <mxPoint x="3143.5" y="1763" />
              <mxPoint x="2940.5" y="1763" />
            </Array>
          </mxGeometry>
        </mxCell>
        <mxCell id="_56JsJIrMxqEIV-PhFIg-284" value="|" style="shape=folder;fontStyle=1;spacingTop=10;tabWidth=40;tabHeight=14;tabPosition=left;hachureGap=4;fontFamily=Architects Daughter;fontSource=https%3A%2F%2Ffonts.googleapis.com%2Fcss%3Ffamily%3DArchitects%2BDaughter;fontSize=20;align=left;fontColor=none;labelPosition=center;verticalLabelPosition=top;verticalAlign=middle;textDirection=ltr;horizontal=1;noLabel=1;" vertex="1" parent="1">
          <mxGeometry x="1838" y="1426" width="707" height="472" as="geometry" />
        </mxCell>
        <mxCell id="_56JsJIrMxqEIV-PhFIg-285" value="GUESTUSER&lt;br&gt;" style="text;align=center;fontStyle=1;verticalAlign=middle;spacingLeft=3;spacingRight=3;strokeColor=none;rotatable=0;points=[[0,0.5],[1,0.5]];portConstraint=eastwest;html=1;fontSize=20;fontFamily=Architects Daughter;" vertex="1" parent="1">
          <mxGeometry x="1884" y="1457" width="80" height="26" as="geometry" />
        </mxCell>
        <mxCell id="_56JsJIrMxqEIV-PhFIg-464" style="edgeStyle=orthogonalEdgeStyle;rounded=0;orthogonalLoop=1;jettySize=auto;html=1;entryX=0;entryY=0.5;entryDx=0;entryDy=0;entryPerimeter=0;endArrow=none;endFill=0;" edge="1" parent="1" source="_56JsJIrMxqEIV-PhFIg-286" target="_56JsJIrMxqEIV-PhFIg-303">
          <mxGeometry relative="1" as="geometry" />
        </mxCell>
        <mxCell id="_56JsJIrMxqEIV-PhFIg-286" value="&amp;lt;&amp;lt;REACT»&lt;br&gt;&lt;b&gt;INDEX&lt;/b&gt;" style="html=1;dropTarget=0;whiteSpace=wrap;hachureGap=4;fontFamily=Architects Daughter;fontSource=https%3A%2F%2Ffonts.googleapis.com%2Fcss%3Ffamily%3DArchitects%2BDaughter;fontSize=20;" vertex="1" parent="1">
          <mxGeometry x="1881" y="1659" width="180" height="90" as="geometry" />
        </mxCell>
        <mxCell id="_56JsJIrMxqEIV-PhFIg-287" value="" style="shape=module;jettyWidth=8;jettyHeight=4;hachureGap=4;fontFamily=Architects Daughter;fontSource=https%3A%2F%2Ffonts.googleapis.com%2Fcss%3Ffamily%3DArchitects%2BDaughter;fontSize=20;" vertex="1" parent="_56JsJIrMxqEIV-PhFIg-286">
          <mxGeometry x="1" width="20" height="20" relative="1" as="geometry">
            <mxPoint x="-27" y="7" as="offset" />
          </mxGeometry>
        </mxCell>
        <mxCell id="_56JsJIrMxqEIV-PhFIg-288" value="&amp;lt;&amp;lt;HTML»&lt;br&gt;&lt;b&gt;Form&lt;/b&gt;" style="html=1;dropTarget=0;whiteSpace=wrap;hachureGap=4;fontFamily=Architects Daughter;fontSource=https%3A%2F%2Ffonts.googleapis.com%2Fcss%3Ffamily%3DArchitects%2BDaughter;fontSize=20;" vertex="1" parent="1">
          <mxGeometry x="1881" y="1501" width="180" height="90" as="geometry" />
        </mxCell>
        <mxCell id="_56JsJIrMxqEIV-PhFIg-289" value="" style="shape=module;jettyWidth=8;jettyHeight=4;hachureGap=4;fontFamily=Architects Daughter;fontSource=https%3A%2F%2Ffonts.googleapis.com%2Fcss%3Ffamily%3DArchitects%2BDaughter;fontSize=20;" vertex="1" parent="_56JsJIrMxqEIV-PhFIg-288">
          <mxGeometry x="1" width="20" height="20" relative="1" as="geometry">
            <mxPoint x="-27" y="7" as="offset" />
          </mxGeometry>
        </mxCell>
        <mxCell id="_56JsJIrMxqEIV-PhFIg-293" value="" style="rounded=0;orthogonalLoop=1;jettySize=auto;html=1;endArrow=oval;endFill=0;sourcePerimeterSpacing=0;targetPerimeterSpacing=0;endSize=10;hachureGap=4;fontFamily=Architects Daughter;fontSource=https%3A%2F%2Ffonts.googleapis.com%2Fcss%3Ffamily%3DArchitects%2BDaughter;fontSize=16;exitX=0.5;exitY=1;exitDx=0;exitDy=0;" edge="1" parent="1" source="_56JsJIrMxqEIV-PhFIg-288">
          <mxGeometry relative="1" as="geometry">
            <mxPoint x="2115" y="1678" as="sourcePoint" />
            <mxPoint x="1971" y="1623" as="targetPoint" />
            <Array as="points" />
          </mxGeometry>
        </mxCell>
        <mxCell id="_56JsJIrMxqEIV-PhFIg-294" value="" style="rounded=0;orthogonalLoop=1;jettySize=auto;html=1;endArrow=halfCircle;endFill=0;endSize=6;strokeWidth=1;hachureGap=4;fontFamily=Architects Daughter;fontSource=https%3A%2F%2Ffonts.googleapis.com%2Fcss%3Ffamily%3DArchitects%2BDaughter;fontSize=16;" edge="1" parent="1" source="_56JsJIrMxqEIV-PhFIg-286">
          <mxGeometry relative="1" as="geometry">
            <mxPoint x="1973" y="1658" as="sourcePoint" />
            <mxPoint x="1971" y="1623" as="targetPoint" />
            <Array as="points" />
          </mxGeometry>
        </mxCell>
        <mxCell id="_56JsJIrMxqEIV-PhFIg-295" value="&lt;span style=&quot;font-weight: normal;&quot;&gt;&amp;lt;&amp;lt;response&amp;gt;&lt;/span&gt;&amp;gt;" style="text;align=center;fontStyle=1;verticalAlign=middle;spacingLeft=3;spacingRight=3;strokeColor=none;rotatable=0;points=[[0,0.5],[1,0.5]];portConstraint=eastwest;html=1;fontSize=15;fontFamily=Architects Daughter;" vertex="1" parent="1">
          <mxGeometry x="2145.5" y="1781" width="80" height="26" as="geometry" />
        </mxCell>
        <mxCell id="_56JsJIrMxqEIV-PhFIg-299" value="" style="edgeStyle=orthogonalEdgeStyle;rounded=0;hachureGap=4;orthogonalLoop=1;jettySize=auto;html=1;fontFamily=Architects Daughter;fontSource=https%3A%2F%2Ffonts.googleapis.com%2Fcss%3Ffamily%3DArchitects%2BDaughter;fontSize=16;endArrow=none;endFill=0;exitX=0;exitY=0.5;exitDx=0;exitDy=0;" edge="1" parent="1" source="_56JsJIrMxqEIV-PhFIg-301" target="_56JsJIrMxqEIV-PhFIg-303">
          <mxGeometry relative="1" as="geometry">
            <Array as="points">
              <mxPoint x="2253" y="1602" />
            </Array>
          </mxGeometry>
        </mxCell>
        <mxCell id="_56JsJIrMxqEIV-PhFIg-300" style="edgeStyle=orthogonalEdgeStyle;rounded=0;hachureGap=4;orthogonalLoop=1;jettySize=auto;html=1;exitX=0.5;exitY=1;exitDx=0;exitDy=0;entryX=0.561;entryY=0.989;entryDx=0;entryDy=0;entryPerimeter=0;fontFamily=Architects Daughter;fontSource=https%3A%2F%2Ffonts.googleapis.com%2Fcss%3Ffamily%3DArchitects%2BDaughter;fontSize=16;dashed=1;" edge="1" parent="1" source="_56JsJIrMxqEIV-PhFIg-301" target="_56JsJIrMxqEIV-PhFIg-286">
          <mxGeometry relative="1" as="geometry" />
        </mxCell>
        <mxCell id="_56JsJIrMxqEIV-PhFIg-301" value="«JS»&lt;br&gt;&lt;b&gt;FormValidation&lt;/b&gt;" style="html=1;dropTarget=0;whiteSpace=wrap;hachureGap=4;fontFamily=Architects Daughter;fontSource=https%3A%2F%2Ffonts.googleapis.com%2Fcss%3Ffamily%3DArchitects%2BDaughter;fontSize=20;" vertex="1" parent="1">
          <mxGeometry x="2324" y="1557" width="180" height="90" as="geometry" />
        </mxCell>
        <mxCell id="_56JsJIrMxqEIV-PhFIg-302" value="" style="shape=module;jettyWidth=8;jettyHeight=4;hachureGap=4;fontFamily=Architects Daughter;fontSource=https%3A%2F%2Ffonts.googleapis.com%2Fcss%3Ffamily%3DArchitects%2BDaughter;fontSize=20;" vertex="1" parent="_56JsJIrMxqEIV-PhFIg-301">
          <mxGeometry x="1" width="20" height="20" relative="1" as="geometry">
            <mxPoint x="-27" y="7" as="offset" />
          </mxGeometry>
        </mxCell>
        <mxCell id="_56JsJIrMxqEIV-PhFIg-303" value="" style="shape=providedRequiredInterface;html=1;verticalLabelPosition=bottom;hachureGap=4;fontFamily=Architects Daughter;fontSource=https%3A%2F%2Ffonts.googleapis.com%2Fcss%3Ffamily%3DArchitects%2BDaughter;fontSize=20;rotation=0;" vertex="1" parent="1">
          <mxGeometry x="2221" y="1592" width="20" height="20" as="geometry" />
        </mxCell>
      </root>
    </mxGraphModel>
  </diagram>
</mxfile>
